<svg width="64" height="64" viewBox="0 0 64 64" fill="none" xmlns="http://www.w3.org/2000/svg">
<rect width="64" height="64" rx="20" fill="#09E789" fill-opacity="0.25"/>
<path d="M43.9967 34.9545H18.2959C18.1334 34.9545 18.0004 35.0875 18.0004 35.25V37.4659C18.0004 37.6284 18.1334 37.7614 18.2959 37.7614H40.647L35.3177 44.5199C35.1663 44.7119 35.303 45 35.5504 45H38.228C38.4089 45 38.5788 44.9187 38.6933 44.7747L44.9274 36.8676C45.5368 36.092 44.9865 34.9545 43.9967 34.9545ZM44.8868 26.2386H22.5356L27.8649 19.4801C28.0163 19.2881 27.8797 19 27.6322 19H24.9547C24.7737 19 24.6038 19.0813 24.4893 19.2253L18.2552 27.1324C17.6459 27.908 18.1961 29.0455 19.1822 29.0455H44.8868C45.0493 29.0455 45.1822 28.9125 45.1822 28.75V26.5341C45.1822 26.3716 45.0493 26.2386 44.8868 26.2386Z" fill="#09E789"/>
</svg>
