<svg width="64" height="64" viewBox="0 0 64 64" fill="none" xmlns="http://www.w3.org/2000/svg">
<rect width="64" height="64" rx="20" fill="#09E789" fill-opacity="0.25"/>
<path fill-rule="evenodd" clip-rule="evenodd" d="M32.3985 19C29.136 19 26.1631 20.0776 24.4043 20.9581C24.2454 21.0376 24.0973 21.1156 23.9594 21.1907C23.6863 21.3395 23.4538 21.4782 23.2689 21.6002L25.2696 24.5457L26.2114 24.9205C29.8922 26.7775 34.8283 26.7775 38.5098 24.9205L39.5787 24.3658L41.4711 21.6002C41.0791 21.3445 40.6714 21.1137 40.2505 20.909C38.5011 20.0379 35.5997 19 32.3985 19ZM27.7449 22.3341C27.0364 22.2015 26.3366 22.0259 25.6495 21.8082C27.297 21.0766 29.7528 20.3001 32.3978 20.3001C34.2302 20.3001 35.963 20.6728 37.396 21.1452C35.7167 21.3814 33.9247 21.7822 32.2172 22.2756C30.8738 22.6641 29.3035 22.6222 27.7449 22.3341ZM39.2725 25.9917L39.0955 26.0813C35.0457 28.1239 29.6748 28.1239 25.625 26.0813L25.4574 25.996C19.3743 32.6706 14.73 45 32.3985 45C50.0655 45 45.3079 32.4402 39.2725 25.9917ZM31.6473 32.0011C31.2642 32.0011 30.8968 32.1533 30.6259 32.4242C30.355 32.6951 30.2028 33.0625 30.2028 33.4456C30.2028 33.8288 30.355 34.1962 30.6259 34.4671C30.8968 34.738 31.2642 34.8902 31.6473 34.8902V32.0011ZM33.0919 30.5565V29.8342H31.6473V30.5565C30.8811 30.5565 30.1462 30.8609 29.6044 31.4027C29.0626 31.9445 28.7582 32.6794 28.7582 33.4456C28.7582 34.2119 29.0626 34.9468 29.6044 35.4886C30.1462 36.0304 30.8811 36.3348 31.6473 36.3348V39.2239C31.3486 39.224 31.0572 39.1314 30.8132 38.959C30.5693 38.7866 30.3848 38.5427 30.2851 38.2611C30.2213 38.0805 30.0884 37.9326 29.9156 37.8499C29.7427 37.7673 29.5441 37.7567 29.3635 37.8205C29.1828 37.8843 29.0349 38.0172 28.9523 38.1901C28.8697 38.3629 28.8591 38.5615 28.9229 38.7421C29.1221 39.3055 29.4911 39.7933 29.979 40.1382C30.4669 40.4832 31.0498 40.6685 31.6473 40.6685V41.3908H33.0919V40.6685C33.8582 40.6685 34.593 40.3641 35.1348 39.8223C35.6767 39.2804 35.981 38.5456 35.981 37.7793C35.981 37.0131 35.6767 36.2782 35.1348 35.7364C34.593 35.1946 33.8582 34.8902 33.0919 34.8902V32.0011C33.7203 32.0011 34.2555 32.4019 34.4549 32.9639C34.4844 33.0558 34.5321 33.1409 34.5952 33.2141C34.6582 33.2872 34.7353 33.347 34.8218 33.3899C34.9083 33.4328 35.0026 33.4579 35.099 33.4637C35.1954 33.4695 35.292 33.4559 35.3831 33.4237C35.4741 33.3915 35.5578 33.3414 35.6291 33.2764C35.7005 33.2113 35.7581 33.1325 35.7985 33.0448C35.8389 32.9571 35.8613 32.8622 35.8644 32.7656C35.8674 32.6691 35.8511 32.573 35.8164 32.4828C35.6171 31.9195 35.2481 31.4317 34.7602 31.0868C34.2723 30.7418 33.6895 30.5565 33.0919 30.5565ZM33.0919 36.3348V39.2239C33.475 39.2239 33.8425 39.0717 34.1134 38.8008C34.3843 38.5299 34.5365 38.1625 34.5365 37.7793C34.5365 37.3962 34.3843 37.0288 34.1134 36.7579C33.8425 36.487 33.475 36.3348 33.0919 36.3348Z" fill="#09E789"/>
</svg>
