<svg width="64" height="64" viewBox="0 0 64 64" fill="none" xmlns="http://www.w3.org/2000/svg">
<rect width="64" height="64" rx="20" fill="#09E789" fill-opacity="0.25"/>
<path d="M25.3334 36V28" stroke="#09E789" stroke-width="3" stroke-linecap="round" stroke-linejoin="round"/>
<path d="M43.7774 28H40.308C37.928 28 36 29.7907 36 32C36 34.2093 37.9294 36 40.3067 36H43.7774C43.8894 36 43.944 36 43.9907 35.9973C44.7107 35.9533 45.284 35.4213 45.3307 34.7533C45.3334 34.7107 45.3334 34.6587 45.3334 34.556V29.444C45.3334 29.3413 45.3334 29.2893 45.3307 29.2467C45.2827 28.5787 44.7107 28.0467 43.9907 28.0027C43.9454 28 43.8894 28 43.7774 28Z" stroke="#09E789" stroke-width="2"/>
<path d="M43.9534 28C43.8494 25.504 43.516 23.9734 42.4374 22.896C40.876 21.3334 38.3614 21.3334 33.3334 21.3334H29.3334C24.3054 21.3334 21.7907 21.3334 20.2294 22.896C18.6667 24.4574 18.6667 26.972 18.6667 32C18.6667 37.028 18.6667 39.5427 20.2294 41.104C21.7907 42.6667 24.3054 42.6667 29.3334 42.6667H33.3334C38.3614 42.6667 40.876 42.6667 42.4374 41.104C43.516 40.0267 43.8507 38.496 43.9534 36" stroke="#09E789" stroke-width="3"/>
<path d="M39.988 32H40.0013" stroke="#09E789" stroke-width="3" stroke-linecap="round" stroke-linejoin="round"/>
</svg>
